<svg xmlns="http://www.w3.org/2000/svg" xmlns:xlink="http://www.w3.org/1999/xlink"  viewBox="0 0 456 320">
<g>
<rect width="456" height="320" fill="#000000"  stroke-width="0" /> 
<path  fill="#FCFB90" stroke-width="0" stroke="#FCFB90" d = " M211 71 C222.466,71 233.534,71 245,71 245,68.2758 245.29,60 249,60 249,60 250,58 250,58 250,58 251,57 251,57 251,57 251,56 251,56 251,56 252,55 252,55 252,55 253,53 253,53 253,53 254,51 254,51 254,51 255,49 255,49 255,49 257,48 257,48 257,48 258,47 258,47 258,47 259,47 259,47 259,42.3915 252.375,41.4377 249.5,40 238.744,34.6221 221.17,39 209.5,39 206.135,39 197,42.9292 197,47 197,47 200,48 200,48 201.874,48 205,53.5497 205,55 205,55 205,56 205,56 208.279,56 211,66.1851 211,69 211,69 211,71 211,71  Z"/>

<path  fill="#FF64FF" stroke-width="0" stroke="#FF64FF" d = " M203 77 L205,77 C205,77 207,76 207,76 207,76 209,75 209,75 209,75 210,74 210,74 210,74 211,73 211,73 211,73 211,71 211,71 211,71 211,69 211,69 210.419,69 205,57.2279 205,56 205,56 205,55 205,55 203.609,55 200,49.2939 200,48 200,48 197,47 197,47 194.736,47 185,46.3733 185,49 196.661,49 200.552,52.6041 205,61.5 205.809,63.1186 207,62.9715 207,65 207,65 208,72.5 208,72.5 208,72.5 203,77 203,77  Z"/>

<path  fill="#F0F080" stroke-width="0" stroke="#F0F080" d = " M258 47 L257,48 C257,48 258,47 258,47  Z"/>

<path  fill="#FF64FF" stroke-width="0" stroke="#FF64FF" d = " M276 93 L277,93 C277,93 279,91 279,91 279,91 279,90 279,90 279,86.6649 287.149,69 291,69 291,69 292,68 292,68 292,68 293,67 293,67 293,67 293,66 293,66 293,66 293,65 293,65 293,65 293,64 293,64 287.168,64 283.994,51 277,51 277,53.1258 288.96,60.58 285,68.5 282.73,73.04 278.594,83.4532 273.5,86 272.043,86.7285 263,82.4463 263,81 259.405,81 249.705,75.9107 248,72.5 247.792,72.0838 249,66.4136 249,65 249,65 252,59.5 252,59.5 256.053,51.3933 261.346,49 271,49 271,46.3733 261.264,47 259,47 259,47 258,47 258,47 258,47 257,48 257,48 257,48 255,49 255,49 255,49 254,51 254,51 254,51 253,53 253,53 253,53 252,55 252,55 252,55 251,56 251,56 251,56 251,57 251,57 251,57 250,58 250,58 250,58 249,60 249,60 249,61.5334 246.14,71 245,71 245,71 245,73 245,73 245,73 247,75 247,75 247,75 248,75 248,75 248,75 270,88.5 270,88.5 270,88.5 276,93 276,93  Z"/>

<path  fill="#F0F080" stroke-width="0" stroke="#F0F080" d = " M200 48 C201.874,48 205,53.5497 205,55 203.609,55 200,49.2939 200,48  Z"/>

<path  fill="#F0F080" stroke-width="0" stroke="#F0F080" d = " M257 48 L255,49 C255,49 257,48 257,48  Z"/>

<path  fill="#FF64FF" stroke-width="0" stroke="#FF64FF" d = " M184 49 L182,50 C182,50 184,49 184,49  Z"/>

<path  fill="#FE79FE" stroke-width="0" stroke="#FE79FE" d = " M207 65 C204.901,65 202.617,61.4417 199.5,63 195.006,65.247 188.003,72.5058 191,78.5 L193,82 C193,83.012 182.855,89.2099 179,81.5 177.129,77.7579 168.583,68.3346 171,63.5 171,63.5 174,55 174,55 174,55 175,54 175,54 176.429,54 179,52.7116 179,51 179,51 180,51 180,51 180,51 181,50 181,50 181,50 182,50 182,50 182,50 184,49 184,49 184,49 185,49 185,49 196.661,49 200.552,52.6041 205,61.5 205.809,63.1186 207,62.9715 207,65  Z"/>

<path  fill="#F0F080" stroke-width="0" stroke="#F0F080" d = " M255 49 L254,51 C254,51 255,49 255,49  Z"/>

<path  fill="#FE79FE" stroke-width="0" stroke="#FE79FE" d = " M249 65 C253.034,65 259.377,60.2538 263,67.5 263.852,69.2047 268.414,81 263,81 263,82.4463 272.043,86.7285 273.5,86 278.594,83.4532 282.73,73.04 285,68.5 288.96,60.58 277,53.1258 277,51 277,51 276,51 276,51 276,51 273,49 273,49 273,49 271,49 271,49 261.346,49 256.053,51.3933 252,59.5 252,59.5 249,65 249,65  Z"/>

<path  fill="#FF64FF" stroke-width="0" stroke="#FF64FF" d = " M273 49 C274.238,49 276,49.4226 276,51 276,51 273,49 273,49  Z"/>

<path  fill="#FF64FF" stroke-width="0" stroke="#FF64FF" d = " M181 50 L180,51 C180,51 181,50 181,50  Z"/>

<path  fill="#FF64FF" stroke-width="0" stroke="#FF64FF" d = " M179 51 C177.571,51 175,52.2884 175,54 176.429,54 179,52.7116 179,51  Z"/>

<path  fill="#F0F080" stroke-width="0" stroke="#F0F080" d = " M254 51 L253,53 C253,53 254,51 254,51  Z"/>

<path  fill="#FDFB8F" stroke-width="0" stroke="#FDFB8F" d = " M119 141 C122.005,141 121.07,132.359 122,130.5 123.056,128.388 121.997,125.505 123,123.5 128.075,113.35 127.907,100.686 133,90.5 L135,79 L136.5,75 L137,80 C137,84.2955 136.818,90.8648 135,94.5 132.329,99.8416 123.998,131.496 127,137.5 129.524,142.549 133.407,145 139,145 139,127.607 141.766,109.968 149,95.5 149,95.5 163,67 163,67 163,67 163,65 163,65 163,61.5149 163.325,55.4124 158.5,53 149.843,48.6717 120.148,60.2031 117,66.5 115.074,70.352 107,72.3859 107,78 107,83.8732 105.297,111.094 107,114.5 107,114.5 113,131.5 113,131.5 114.65,134.8 119,137.04 119,141  Z"/>

<path  fill="#F0F080" stroke-width="0" stroke="#F0F080" d = " M253 53 L252,55 C252,55 253,53 253,53  Z"/>

<path  fill="#FDFB8F" stroke-width="0" stroke="#FDFB8F" d = " M337 141 C334.246,141 334.993,129.487 334,127.5 328.359,116.219 328.803,100.107 323,88.5 322.077,86.6537 322.681,75 319.5,75 L319,79.5 L321,93.5 C324,99.5003 332.565,131.371 329,138.5 326.903,142.694 322.785,145 318,145 318,127.77 314.22,108.939 307,94.5 305.281,91.0623 293,68.5478 293,67 293,67 293,66 293,66 294.186,66 294.186,65 293,65 293,65 293,64 293,64 293,40.5886 332.379,58.8791 340.5,67 343.172,69.6715 350,73.7254 350,78 350,85.7224 351.476,111.549 349,116.5 349,116.5 343,132.5 343,132.5 341.605,135.289 337,137.726 337,141  Z"/>

<path  fill="#FF64FF" stroke-width="0" stroke="#FF64FF" d = " M175 54 L174,55 C174,55 175,54 175,54  Z"/>

<path  fill="#FF64FF" stroke-width="0" stroke="#FF64FF" d = " M179 93 L180,93 C180,93 181,92 181,92 181,92 182,92 182,92 182,92 183,91 183,91 183,91 185,90 185,90 185,90 187,89 187,89 187,86.7319 195.031,83 197,83 197,81.2884 199.571,80 201,80 201,80 203,77 203,77 203,77 193,82 193,82 193,83.012 182.855,89.2099 179,81.5 177.129,77.7579 168.583,68.3346 171,63.5 171,63.5 174,55 174,55 171.949,55 164,62.8292 164,65 164,65 165,68 165,68 165,68 165,69 165,69 169.973,69 177,83.9472 177,89 177,89 177,90 177,90 177,90 179,93 179,93  Z"/>

<path  fill="#F0F080" stroke-width="0" stroke="#F0F080" d = " M252 55 L251,56 C251,56 252,55 252,55  Z"/>

<path  fill="#F0F080" stroke-width="0" stroke="#F0F080" d = " M205 56 C208.279,56 211,66.1851 211,69 210.419,69 205,57.2279 205,56  Z"/>

<path  fill="#F0F080" stroke-width="0" stroke="#F0F080" d = " M251 57 L250,58 C250,58 251,57 251,57  Z"/>

<path  fill="#F0F080" stroke-width="0" stroke="#F0F080" d = " M250 58 L249,60 C249,60 250,58 250,58  Z"/>

<path  fill="#F0F080" stroke-width="0" stroke="#F0F080" d = " M249 60 C245.29,60 245,68.2758 245,71 246.14,71 249,61.5334 249,60  Z"/>

<path  fill="#FE79FF" stroke-width="0" stroke="#FE79FF" d = " M203 77 L193,82 C193,82 191,78.5 191,78.5 188.003,72.5058 195.006,65.247 199.5,63 202.617,61.4417 204.901,65 207,65 207,65 208,72.5 208,72.5 208,72.5 203,77 203,77  Z"/>

<path  fill="#FE79FF" stroke-width="0" stroke="#FE79FF" d = " M249 65 C253.034,65 259.377,60.2538 263,67.5 263.852,69.2047 268.414,81 263,81 259.405,81 249.705,75.9107 248,72.5 247.792,72.0838 249,66.4136 249,65  Z"/>

<path  fill="#F0F080" stroke-width="0" stroke="#F0F080" d = " M163 67 L165,68 C165,68 164,65 164,65 164,65 163,65 163,65 163,65 163,67 163,67  Z"/>

<path  fill="#F0F080" stroke-width="0" stroke="#F0F080" d = " M293 65 C294.186,65 294.186,66 293,66 293,66 293,65 293,65  Z"/>

<path  fill="#FCFB90" stroke-width="0" stroke="#FCFB90" d = " M157 133 C154.541,133 157,121.714 157,120 L156.5,116 C153.944,116 155.793,126.913 155,128.5 151.384,135.732 149.625,145 139,145 139,127.607 141.766,109.968 149,95.5 149,95.5 163,67 163,67 163,67 165,68 165,68 165,68 165,69 165,69 165,73.2889 171.443,81.9427 174.5,85 175.553,86.0533 174.547,89 177,89 177,89 177,90 177,90 177,90 178,93 178,93 178,98.7273 167.894,117.711 165,123.5 163.991,125.519 160.092,133 157,133  Z"/>

<path  fill="#FCFB90" stroke-width="0" stroke="#FCFB90" d = " M300 134 L299.5,115 C301.197,115 302,128.744 302,130.5 302,138.108 310.466,145 318,145 318,127.77 314.22,108.939 307,94.5 305.281,91.0623 293,68.5478 293,67 293,67 292,68 292,68 292,68 291,69 291,69 291,73.2141 284.94,82.5596 282,85.5 280.829,86.6708 281.226,90 279,90 279,90 279,91 279,91 279,91 278,93 278,93 278,95.722 290.127,123.627 292.5,126 292.5,126 300,134 300,134  Z"/>

<path  fill="#F0F080" stroke-width="0" stroke="#F0F080" d = " M292 68 L291,69 C291,69 292,68 292,68  Z"/>

<path  fill="#F0F080" stroke-width="0" stroke="#F0F080" d = " M165 69 C169.973,69 177,83.9472 177,89 174.547,89 175.553,86.0533 174.5,85 171.443,81.9427 165,73.2889 165,69  Z"/>

<path  fill="#F0F080" stroke-width="0" stroke="#F0F080" d = " M291 69 C287.149,69 279,86.6649 279,90 281.226,90 280.829,86.6708 282,85.5 284.94,82.5596 291,73.2141 291,69  Z"/>

<path  fill-rule="evenodd" fill="#FFFC8E" stroke-width="0" stroke="#FFFC8E" d = " M174 130 C174,131.93 175.93,130 174,130  M175 128 C175,129.93 176.93,128 175,128  M176 127 C176,128.93 177.93,127 176,127  M180 135 C180,126.736 198.083,126 204,126 L259.5,126 C263.127,127.813 267.883,127.192 271.5,129 L278,135 C278,135 282,134.5 282,134.5 282.712,133.076 279.517,127 280.5,127 280.923,127 285.603,135.051 287.5,136 289.65,137.075 300,138.78 300,134 300,134 292.5,126 292.5,126 290.127,123.627 278,95.722 278,93 278,93 277,93 277,93 277,93 276,93 276,93 272.573,93 256.887,82.3866 254,79.5 254,79.5 248,75 248,75 248,75 247,75 247,75 247,75 245,73 245,73 245,73 245,71 245,71 233.534,71 222.466,71 211,71 211,71 211,73 211,73 211,73 210,74 210,74 210,74 209,75 209,75 209,75 207,76 207,76 207,76 205,77 205,77 205,78.7116 202.429,80 201,80 201,81.7116 198.429,83 197,83 197,85.2681 188.969,89 187,89 187,89 185,90 185,90 185,90 183,91 183,91 183,91 182,92 182,92 182,92 181,92 181,92 181,92 180,93 180,93 180,93 179,93 179,93 179,93 178,93 178,93 178,98.7273 167.894,117.711 165,123.5 163.991,125.519 160.092,133 157,133 157,139.906 166.946,136.777 170.5,135 170.5,135 173.5,131 173.5,131 173.904,131 174.977,135 178,135 178,135 180,135 180,135  Z"/>

<path  fill="#F0F080" stroke-width="0" stroke="#F0F080" d = " M211 73 L210,74 C210,74 211,73 211,73  Z"/>

<path  fill="#F0F080" stroke-width="0" stroke="#F0F080" d = " M245 73 L247,75 C247,75 245,73 245,73  Z"/>

<path  fill="#F0F080" stroke-width="0" stroke="#F0F080" d = " M210 74 L209,75 C209,75 210,74 210,74  Z"/>

<path  fill-rule="evenodd" fill="#CBC9CC" stroke-width="0" stroke="#CBC9CC" d = " M125 157 L120,162.5 C118.321,165.857 118.73,170.04 117,173.5 114.24,179.02 117.147,189.676 124.5,186 131.948,182.276 128.526,178.449 131,173.5 134.341,166.818 136.131,157 125,157  M271 139 L269,141.5 C269.794,143.088 280.646,139 273.5,139 L271,139  M181 139 C181,144.983 192.069,139 183.5,139 L181,139  M335 194 L337,195 C337,193.699 332.486,188 337,188 337,188 337,187 337,187 337,187 346.5,187 346.5,187 355.727,191.613 380.832,203.165 385,211.5 387.353,216.206 387,221.794 387,227.5 387,227.5 387.5,233 387.5,233 389.078,233.789 391,224.943 391,223.5 391,216.078 390.065,202.783 382.5,199 376.632,196.066 370.297,193.898 364.5,191 364.5,191 356.5,184 356.5,184 354.33,182.915 346,182.853 346,179 343.732,179 343.175,173.15 344,171.5 346.177,167.146 351.063,163 356,163 356,163 361,163 361,163 361,161.316 365.679,162 367,162 367,159.956 358.451,157.402 357,154.5 355.919,152.339 365.832,144.666 362.5,143 362.265,142.883 355.312,152.094 353.5,153 347.141,156.179 337,146.471 337,141 334.246,141 334.993,129.487 334,127.5 328.359,116.219 328.803,100.107 323,88.5 322.077,86.6537 322.681,75 319.5,75 319.5,75 319,79.5 319,79.5 319,79.5 321,93.5 321,93.5 324,99.5003 332.565,131.371 329,138.5 326.903,142.694 322.785,145 318,145 310.466,145 302,138.108 302,130.5 302,128.744 301.197,115 299.5,115 299.5,115 300,134 300,134 300,138.78 289.65,137.075 287.5,136 285.603,135.051 280.923,127 280.5,127 279.517,127 282.712,133.076 282,134.5 282,134.5 278,135 278,135 278,135.559 273.3,135 271.5,135 266.718,135 262.421,135.039 258.5,137 246.577,142.961 223.827,147.164 211.5,141 211.5,141 205.5,141 205.5,141 196.946,136.723 190.516,135 180,135 180,136.399 178,136.399 178,135 174.977,135 173.904,131 173.5,131 173.5,131 170.5,135 170.5,135 166.946,136.777 157,139.906 157,133 154.541,133 157,121.714 157,120 157,120 156.5,116 156.5,116 153.944,116 155.793,126.913 155,128.5 151.384,135.732 149.625,145 139,145 133.407,145 129.524,142.549 127,137.5 123.998,131.496 132.329,99.8416 135,94.5 136.818,90.8648 137,84.2955 137,80 137,80 136.5,75 136.5,75 136.5,75 135,79 135,79 135,79 133,90.5 133,90.5 127.907,100.686 128.075,113.35 123,123.5 121.997,125.505 123.056,128.388 122,130.5 121.07,132.359 122.005,141 119,141 119,151.067 106.761,154.63 99.5,151 99.5,151 99,148.5 99,148.5 99,148.5 93,142.5 93,142.5 90.2469,136.994 88.7319,130.964 86,125.5 84.4298,122.36 86.7705,114.959 88,112.5 88,112.5 87.5,110 87.5,110 85.2883,110 84.7032,119.094 84,120.5 81.9624,124.575 84.3666,124.233 86,127.5 87.617,130.734 87.3719,135.244 89,138.5 91.3701,143.24 96.9993,147.499 99,151.5 102.362,158.224 90,158.448 90,162 91.2345,162 95,161.357 95,163 95,163 101,163 101,163 105.629,163 115.923,170.653 113,176.5 113,176.5 111,179 111,179 111,182.943 101.742,182.879 99.5,184 99.5,184 91.5,191 91.5,191 84.8682,194.316 78.2378,197.631 71.5,201 65.5472,203.976 66,218.366 66,224.5 66,226.074 66.2848,233 68.5,233 68.5,233 69,223.5 69,223.5 69,217.897 70.7076,214.085 73,209.5 75.0436,205.413 100.466,191.517 105.5,189 106.542,188.479 119,184.71 119,188 121.461,188 121,191.378 121,193 121,193 127,188 127,188 127,188 128,187 128,187 128,187 131,187 131,187 131,187 133,183 133,183 133,180.03 138.858,167.679 143.5,170 144.973,170.737 147.627,175 148,175 148,171.672 152,169.521 152,168 147.326,168 162,148.304 162,161 162,161 171,157 171,157 171,157 171,156 171,156 171,156 172,155 172,155 172,148.37 188,149.171 188,152 190.905,152 197,157.94 197,161 197,161 197,162 197,162 197,162 201,163 201,163 201,163 196,158.5 196,158.5 194.293,155.086 194.68,150.859 193,147.5 192.358,146.217 190.047,145.405 191,143.5 191,143.5 199,143 199,143 207.183,143 212.87,147 221.5,147 221.5,147 242.5,147 242.5,147 247.18,144.66 259.263,139.881 265.5,143 267.675,144.087 263.443,146.614 263,147.5 262.001,149.498 261,155.9 261,158 262.258,158 264.331,152 269,152 269,149.614 275.234,148.867 277.5,150 279.339,150.92 281.766,150.133 283.5,151 283.907,151.203 288.037,161 294,161 294,148.386 309.282,168 304,168 304,168 307,169.5 307,169.5 307,169.5 308,175 308,175 308,175 308,176 308,176 308,176 312.5,170 312.5,170 317.684,167.408 323,179.902 323,183 323,183 325,187 325,187 325,187 330,188 330,188 330,188 331,189 331,189 331,189 333,191 333,191 333,191 334,192 334,192 334,192 335,194 335,194  M337 187 C337,183.828 342.313,180.127 340,175.5 338.13,171.76 338.444,166.388 337,163.5 333.088,155.675 325.912,155.675 322,163.5 320.698,166.104 324.015,170.531 325,172.5 327.343,177.185 324.439,187 337,187  Z"/>

<path  fill="#F0F080" stroke-width="0" stroke="#F0F080" d = " M209 75 L207,76 C207,76 209,75 209,75  Z"/>

<path  fill="#F0F080" stroke-width="0" stroke="#F0F080" d = " M248 75 L270,88.5 L276,93 C272.573,93 256.887,82.3866 254,79.5 254,79.5 248,75 248,75  Z"/>

<path  fill="#F0F080" stroke-width="0" stroke="#F0F080" d = " M207 76 L205,77 C205,77 207,76 207,76  Z"/>

<path  fill="#F0F080" stroke-width="0" stroke="#F0F080" d = " M205 77 C205,78.7116 202.429,80 201,80 201,80 203,77 203,77 203,77 205,77 205,77  Z"/>

<path  fill-rule="evenodd" fill="#FCFC90" stroke-width="0" stroke="#FCFC90" d = " M88 109 C88,110.93 89.93,109 88,109  M86 162 L90,162 C90,158.448 102.362,158.224 99,151.5 96.9993,147.499 91.3701,143.24 89,138.5 87.3719,135.244 87.617,130.734 86,127.5 84.3666,124.233 81.9624,124.575 84,120.5 84.7032,119.094 85.2883,110 87.5,110 87.5,110 88,112.5 88,112.5 86.7705,114.959 84.4298,122.36 86,125.5 88.7319,130.964 90.2469,136.994 93,142.5 93,142.5 99,148.5 99,148.5 99,148.5 99.5,151 99.5,151 106.761,154.63 119,151.067 119,141 119,137.04 114.65,134.8 113,131.5 113,131.5 107,114.5 107,114.5 105.297,111.094 107,83.8732 107,78 88.627,78 72.4087,101.683 65,116.5 65,116.5 62,127.5 62,127.5 60.9086,129.683 62.1446,134.789 63,136.5 63,136.5 63,140.5 63,140.5 67.0461,148.592 70.4204,151.96 78.5,156 81.4005,157.45 82.4742,162 86,162  Z"/>

<path  fill-rule="evenodd" fill="#FCFC90" stroke-width="0" stroke="#FCFC90" d = " M368 131 C368,132.551 363.173,143 363.5,143 366.343,143 370.134,131 368,131  M367 107 L370,116.5 C371.249,118.997 371.288,123.924 370,126.5 369.891,126.718 367.681,131 369.5,131 371.075,131 370.571,126.357 371,125.5 L373,124.5 C374.315,121.87 368.098,107 367,107  M367 162 L371,162 C374.672,162 373.971,158.265 376.5,157 387.575,151.462 394,144.255 394,131 394,131 394,124.5 394,124.5 394,124.5 389,111.5 389,111.5 383.227,99.9533 363.89,78 350,78 350,85.7224 351.476,111.549 349,116.5 349,116.5 343,132.5 343,132.5 341.605,135.289 337,137.726 337,141 337,146.471 347.141,156.179 353.5,153 355.312,152.094 362.265,142.883 362.5,143 365.832,144.666 355.919,152.339 357,154.5 358.451,157.402 367,159.956 367,162  Z"/>

<path  fill="#F0F080" stroke-width="0" stroke="#F0F080" d = " M201 80 C199.571,80 197,81.2884 197,83 198.429,83 201,81.7116 201,80  Z"/>

<path  fill="#F0F080" stroke-width="0" stroke="#F0F080" d = " M197 83 C195.031,83 187,86.7319 187,89 188.969,89 197,85.2681 197,83  Z"/>

<path  fill="#F0F080" stroke-width="0" stroke="#F0F080" d = " M187 89 L185,90 C185,90 187,89 187,89  Z"/>

<path  fill="#F0F080" stroke-width="0" stroke="#F0F080" d = " M178 93 L179,93 C179,93 177,90 177,90 177,90 178,93 178,93  Z"/>

<path  fill="#F0F080" stroke-width="0" stroke="#F0F080" d = " M185 90 L183,91 C183,91 185,90 185,90  Z"/>

<path  fill="#F0F080" stroke-width="0" stroke="#F0F080" d = " M183 91 L182,92 C182,92 183,91 183,91  Z"/>

<path  fill="#F0F080" stroke-width="0" stroke="#F0F080" d = " M277 93 L278,93 C278,93 279,91 279,91 279,91 277,93 277,93  Z"/>

<path  fill="#F0F080" stroke-width="0" stroke="#F0F080" d = " M181 92 L180,93 C180,93 181,92 181,92  Z"/>

<path  fill="#CBC9CC" stroke-width="0" stroke="#CBC9CC" d = " M367 107 L370,116.5 C371.249,118.997 371.288,123.924 370,126.5 369.891,126.718 367.681,131 369.5,131 371.075,131 370.571,126.357 371,125.5 L373,124.5 C374.315,121.87 368.098,107 367,107  Z"/>

<path  fill="#CBC9CC" stroke-width="0" stroke="#CBC9CC" d = " M88 109 C88,110.93 89.93,109 88,109  Z"/>

<path  fill="#FDFA91" stroke-width="0" stroke="#FDFA91" d = " M180 135 C190.516,135 196.946,136.723 205.5,141 L211.5,141 C223.827,147.164 246.577,142.961 258.5,137 262.421,135.039 266.718,135 271.5,135 273.3,135 278,135.559 278,135 278,135 271.5,129 271.5,129 267.883,127.192 263.127,127.813 259.5,126 259.5,126 204,126 204,126 198.083,126 180,126.736 180,135  Z"/>

<path  fill="#CBC9CC" stroke-width="0" stroke="#CBC9CC" d = " M176 127 C176,128.93 177.93,127 176,127  Z"/>

<path  fill="#CBC9CC" stroke-width="0" stroke="#CBC9CC" d = " M175 128 C175,129.93 176.93,128 175,128  Z"/>

<path  fill="#CBC9CC" stroke-width="0" stroke="#CBC9CC" d = " M174 130 C174,131.93 175.93,130 174,130  Z"/>

<path  fill="#CBC9CC" stroke-width="0" stroke="#CBC9CC" d = " M368 131 C368,132.551 363.173,143 363.5,143 366.343,143 370.134,131 368,131  Z"/>

<path  fill="#FDFA91" stroke-width="0" stroke="#FDFA91" d = " M178 135 L180,135 C180,136.399 178,136.399 178,135  Z"/>

<path  fill="#FDFA91" stroke-width="0" stroke="#FDFA91" d = " M181 139 C181,144.983 192.069,139 183.5,139 L181,139  Z"/>

<path  fill="#FDFA91" stroke-width="0" stroke="#FDFA91" d = " M271 139 L269,141.5 C269.794,143.088 280.646,139 273.5,139 L271,139  Z"/>

<path  fill="#FDFA91" stroke-width="0" stroke="#FDFA91" d = " M207 165 C220.088,165 235.919,165 249,165 249,165 256,163 256,163 256,163 257,162 257,162 257,162 259,161 259,161 259,159.762 259.423,158 261,158 261,155.9 262.001,149.498 263,147.5 263.443,146.614 267.675,144.087 265.5,143 259.263,139.881 247.18,144.66 242.5,147 242.5,147 221.5,147 221.5,147 212.87,147 207.183,143 199,143 199,143 191,143.5 191,143.5 190.047,145.405 192.358,146.217 193,147.5 194.68,150.859 194.293,155.086 196,158.5 196,158.5 201,163 201,163 202.974,163 204.517,165 207,165  Z"/>

<path  fill="#F0F080" stroke-width="0" stroke="#F0F080" d = " M188 152 C181.972,152 177.005,155 172,155 172,148.37 188,149.171 188,152  Z"/>

<path  fill="#F0F080" stroke-width="0" stroke="#F0F080" d = " M302 171 L308,175 C308,175 307,169.5 307,169.5 307,169.5 304,168 304,168 300.033,168 297.766,161 294,161 288.037,161 283.907,151.203 283.5,151 281.766,150.133 279.339,150.92 277.5,150 275.234,148.867 269,149.614 269,152 269,152 280.5,153 280.5,153 283.761,154.631 288.474,159 282,159 282,159 282,161 282,161 288.869,161 292.924,162.212 298.5,165 299.559,165.53 304.911,171 302,171  Z"/>

<path  fill="#CBC9C8" stroke-width="0" stroke="#CBC9C8" d = " M192 159 C193.624,159 194.75,161 197,161 197,157.94 190.905,152 188,152 181.972,152 177.005,155 172,155 172,155 171,156 171,156 171,156 171,157 171,157 171,159.641 172.823,159 175,159 175,159 176,159 176,159 176,159 177,158 177,158 178.803,158 191,154.776 191,159 191,159 192,159 192,159  Z"/>

<path  fill="#CBC9C8" stroke-width="0" stroke="#CBC9C8" d = " M264 160 L260,161 C260,161 261,158 261,158 262.258,158 264.331,152 269,152 269,152 280.5,153 280.5,153 283.761,154.631 288.474,159 282,159 282,159 276.5,157 276.5,157 272.516,155.008 267.798,159 265,159 265,159 264,160 264,160  Z"/>

<path  fill="#F0F080" stroke-width="0" stroke="#F0F080" d = " M172 155 L171,156 C171,156 172,155 172,155  Z"/>

<path  fill="#FFFDBB" stroke-width="0" stroke="#FFFDBB" d = " M125 157 L120,162.5 C118.321,165.857 118.73,170.04 117,173.5 114.24,179.02 117.147,189.676 124.5,186 131.948,182.276 128.526,178.449 131,173.5 134.341,166.818 136.131,157 125,157  Z"/>

<path  fill="#FFFDBC" stroke-width="0" stroke="#FFFDBC" d = " M155 167 L152,168 C147.326,168 162,148.304 162,161 162,161 161,162 161,162 161,162 155,167 155,167  Z"/>

<path  fill="#F0F080" stroke-width="0" stroke="#F0F080" d = " M161 162 L155,167 C158.184,167 163.715,161 174,161 174,161 175,160 175,160 175,160 175,159 175,159 172.823,159 171,159.641 171,157 171,157 162,161 162,161 162,161 161,162 161,162  Z"/>

<path  fill="#FFAD6D" stroke-width="0" stroke="#FFAD6D" d = " M180 165 L182,169 C186.95,169 192,166.571 192,161 192,161 192,160 192,160 192,160 191,159 191,159 191,154.776 178.803,158 177,158 177,158 176,159 176,159 176,159 175,159 175,159 175,159 175,160 175,160 175,160 175,161 175,161 177.598,161 182.818,157.159 184.5,158 190.308,160.904 189.309,164 183,164 183,164 180,165 180,165  Z"/>

<path  fill="#FFAD6D" stroke-width="0" stroke="#FFAD6D" d = " M277 165 C277,166.429 275.712,169 274,169 268.07,169 265,165.938 265,160 265,160 265,159 265,159 267.798,159 272.516,155.008 276.5,157 276.5,157 282,159 282,159 282,159 282,161 282,161 278.91,161 273.995,156.753 271.5,158 265.105,161.197 268.441,164 274,164 274,164 277,165 277,165  Z"/>

<path  fill="#FFFDBC" stroke-width="0" stroke="#FFFDBC" d = " M294 161 C297.766,161 300.033,168 304,168 309.282,168 294,148.386 294,161  Z"/>

<path  fill="#FFFDBB" stroke-width="0" stroke="#FFFDBB" d = " M337 187 C337,183.828 342.313,180.127 340,175.5 338.13,171.76 338.444,166.388 337,163.5 333.088,155.675 325.912,155.675 322,163.5 320.698,166.104 324.015,170.531 325,172.5 327.343,177.185 324.439,187 337,187  Z"/>

<path  fill="#FF9B88" stroke-width="0" stroke="#FF9B88" d = " M177 158 L176,159 C176,159 177,158 177,158  Z"/>

<path  fill="#CBC9CB" stroke-width="0" stroke="#CBC9CB" d = " M154 171 L157,171 C160.066,171 161.417,169 164,169 164,169 165,168 165,168 165,168 168,167 168,167 168,167 169,166 169,166 169,166 170,166 170,166 170,166 171,165 171,165 171,165 173,165 173,165 173,165 175,164 175,164 175,164 177,164 177,164 177,162.413 183,162.413 183,164 189.309,164 190.308,160.904 184.5,158 182.818,157.159 177.598,161 175,161 175,161 174,161 174,161 163.715,161 158.184,167 155,167 155,167 154,171 154,171  Z"/>

<path  fill="#CBC9CC" stroke-width="0" stroke="#CBC9CC" d = " M259 161 L260,161 C260,161 261,158 261,158 259.423,158 259,159.762 259,161  Z"/>

<path  fill="#CBC9CB" stroke-width="0" stroke="#CBC9CB" d = " M299 171 L302,171 C304.911,171 299.559,165.53 298.5,165 292.924,162.212 288.869,161 282,161 278.91,161 273.995,156.753 271.5,158 265.105,161.197 268.441,164 274,164 274,162.434 279,162.434 279,164 279,164 281,164 281,164 281,164 283,165 283,165 283,165 285,165 285,165 286.238,165 288,165.423 288,167 288,167 290,167 290,167 290,167 291,168 291,168 293.7,168 295.762,171 299,171  Z"/>

<path  fill="#FF9B88" stroke-width="0" stroke="#FF9B88" d = " M192 159 L192,160 C192,160 191,159 191,159 191,159 192,159 192,159  Z"/>

<path  fill="#F0F080" stroke-width="0" stroke="#F0F080" d = " M197 162 L193,164 C193,162.952 193.473,161 192,161 192,161 192,160 192,160 192,160 192,159 192,159 193.624,159 194.75,161 197,161 197,161 197,162 197,162  Z"/>

<path  fill="#F0F080" stroke-width="0" stroke="#F0F080" d = " M264 160 L265,160 C265,160 265,159 265,159 265,159 264,160 264,160  Z"/>

<path  fill="#FF9B88" stroke-width="0" stroke="#FF9B88" d = " M174 161 L175,161 C175,161 175,160 175,160 175,160 174,161 174,161  Z"/>

<path  fill="#F0F080" stroke-width="0" stroke="#F0F080" d = " M259 162 L263,165 C264.643,165 264,161.235 264,160 264,160 260,161 260,161 260,161 259,161 259,161 259,161 259,162 259,162  Z"/>

<path  fill="#FF9B88" stroke-width="0" stroke="#FF9B88" d = " M269 171 L272,171 C272,171 274,170 274,170 274,170 274,169 274,169 268.07,169 265,165.938 265,160 265,160 264,160 264,160 264,161.235 264.643,165 263,165 263,165 263,171 263,171 263,171 267,171 267,171 267,171 269,171 269,171  Z"/>

<path  fill="#CBC9CC" stroke-width="0" stroke="#CBC9CC" d = " M162 161 L161,162 C161,162 162,161 162,161  Z"/>

<path  fill="#FF9B88" stroke-width="0" stroke="#FF9B88" d = " M189 171 L194,171 C194,171 193,164 193,164 193,162.952 193.473,161 192,161 192,166.571 186.95,169 182,169 182,169 182,170 182,170 183.048,170 185,169.527 185,171 185,171 188,171 188,171 188,171 189,171 189,171  Z"/>

<path  fill="#CBC9CC" stroke-width="0" stroke="#CBC9CC" d = " M257 162 L259,162 C259,162 259,161 259,161 259,161 257,162 257,162  Z"/>

<path  fill="#FCFA91" stroke-width="0" stroke="#FCFA91" d = " M95 163 C92.1672,163 90.1595,165 88,165 88,162.785 86,163.481 86,162 86,162 90,162 90,162 91.2345,162 95,161.357 95,163  Z"/>

<path  fill="#AAA9A7" stroke-width="0" stroke="#AAA9A7" d = " M226 203 L230,204 C230,196.024 237.88,183 247,183 247,183 248,182 248,182 248,182 249,181 249,181 252.428,181 255.206,175 259,175 259,175 260,174 260,174 260,174 261,173 261,173 261,173 263,171 263,171 263,171 263,165 263,165 263,165 259,162 259,162 259,162 257,162 257,162 257,162 256,163 256,163 256,163 249,165 249,165 249,167.162 242.933,167.284 241.5,168 236.587,170.457 220.413,170.457 215.5,168 213.883,167.191 207,167.595 207,165 204.517,165 202.974,163 201,163 201,163 197,162 197,162 197,162 193,164 193,164 193,164 194,171 194,171 194,171 197,174 197,174 197,174 205,179 205,179 205,179 207,181 207,181 207,181 208,181 208,181 215.127,181 226,196.324 226,203  Z"/>

<path  fill="#CBC9CC" stroke-width="0" stroke="#CBC9CC" d = " M257 162 L256,163 C256,163 257,162 257,162  Z"/>

<path  fill="#FCFA91" stroke-width="0" stroke="#FCFA91" d = " M361 163 C363.765,163 366.165,165 368,165 368,165 371,162 371,162 371,162 367,162 367,162 365.679,162 361,161.316 361,163  Z"/>

<path  fill="#FFFC8D" stroke-width="0" stroke="#FFFC8D" d = " M119 188 C119,190.69 110.625,197.937 108.5,199 106.479,200.01 83.7696,218.961 83,220.5 79.6866,227.127 95,238.823 95,241 94.0901,241 92.6225,249.255 92,250.5 89.3717,255.757 75.3397,267.42 68.5,264 62.3404,260.92 55.0883,256.677 52,250.5 43.6169,233.734 37.91,193.795 59.5,183 63.1378,181.181 66.9243,179.788 70.5,178 70.5,178 81.5,179 81.5,179 86.0943,176.703 77.5135,165 88,165 90.1595,165 92.1672,163 95,163 95,163 101,163 101,163 101,164.512 109.976,179 111,179 111,182.943 101.742,182.879 99.5,184 99.5,184 91.5,191 91.5,191 84.8682,194.316 78.2378,197.631 71.5,201 65.5472,203.976 66,218.366 66,224.5 66,226.074 66.2848,233 68.5,233 68.5,233 69,223.5 69,223.5 69,217.897 70.7076,214.085 73,209.5 75.0436,205.413 100.466,191.517 105.5,189 106.542,188.479 119,184.71 119,188  Z"/>

<path  fill="#FFF990" stroke-width="0" stroke="#FFF990" d = " M101 163 C105.629,163 115.923,170.653 113,176.5 L111,179 C109.976,179 101,164.512 101,163  Z"/>

<path  fill="#FF9B88" stroke-width="0" stroke="#FF9B88" d = " M183 164 L180,165 C180,165 177,164 177,164 177,162.413 183,162.413 183,164  Z"/>

<path  fill="#FF9B88" stroke-width="0" stroke="#FF9B88" d = " M279 164 L277,165 C277,165 274,164 274,164 274,162.434 279,162.434 279,164  Z"/>

<path  fill="#FFF990" stroke-width="0" stroke="#FFF990" d = " M356 163 C351.063,163 346.177,167.146 344,171.5 343.175,173.15 343.732,179 346,179 346,179 348.5,175 348.5,175 349.284,174.216 356,163.332 356,163  Z"/>

<path  fill="#FFFC8D" stroke-width="0" stroke="#FFFC8D" d = " M337 188 L343,194.5 C348.729,205.958 367.996,209.492 373,219.5 377.255,228.01 362,236.372 362,241 362,248.317 367.695,257.597 374.5,261 376.829,262.165 380.206,261.853 382.5,263 383.69,263.595 385.847,264.826 387.5,264 394.906,260.297 403.027,254.445 407,246.5 414.826,230.848 415.845,192.672 396.5,183 393.159,181.329 389.787,179.644 386.5,178 386.5,178 374.5,179 374.5,179 371.786,177.643 378.963,165 368,165 366.165,165 363.765,163 361,163 361,163 356,163 356,163 356,163.332 349.284,174.216 348.5,175 348.5,175 346,179 346,179 346,182.853 354.33,182.915 356.5,184 356.5,184 364.5,191 364.5,191 370.297,193.898 376.632,196.066 382.5,199 390.065,202.783 391,216.078 391,223.5 391,224.943 389.078,233.789 387.5,233 387.5,233 387,227.5 387,227.5 387,221.794 387.353,216.206 385,211.5 380.832,203.165 355.727,191.613 346.5,187 346.5,187 337,187 337,187 337,187 337,188 337,188  Z"/>

<path  fill="#FF9BCD" stroke-width="0" stroke="#FF9BCD" d = " M175 164 L173,165 C173,165 175,164 175,164  Z"/>

<path  fill="#FDB3D6" stroke-width="0" stroke="#FDB3D6" d = " M169 184 L168,185 C164.43,185 158.92,189.21 154.5,187 154.5,187 151,183 151,183 151,179.653 149.678,177.143 151,174.5 151,174.5 157,171 157,171 160.066,171 161.417,169 164,169 164,169 165,168 165,168 165,168 168,167 168,167 168,167 169,166 169,166 169,166 170,166 170,166 170,166 171,165 171,165 171,165 173,165 173,165 173,165 175,164 175,164 175,164 177,164 177,164 177,164 180,165 180,165 180,165 182,169 182,169 182,169 182,170 182,170 182,170 182,171 182,171 179.388,171 173,178.542 173,181 173,181 172,182 172,182 172,182 169,184 169,184  Z"/>

<path  fill="#FEFA91" stroke-width="0" stroke="#FEFA91" d = " M207 165 C220.088,165 235.919,165 249,165 249,167.162 242.933,167.284 241.5,168 236.587,170.457 220.413,170.457 215.5,168 213.883,167.191 207,167.595 207,165  Z"/>

<path  fill="#FDB3D6" stroke-width="0" stroke="#FDB3D6" d = " M305 183 C305,192.158 288.266,184 287,184 287,184 283,181 283,181 283,176.852 275,173.384 275,171 275,171 274,170 274,170 274,170 274,169 274,169 275.712,169 277,166.429 277,165 277,165 279,164 279,164 279,164 281,164 281,164 281,164 283,165 283,165 283,165 285,165 285,165 285,165 288,167 288,167 288,167 290,167 290,167 290,167 291,168 291,168 293.7,168 295.762,171 299,171 299,172.829 304.842,173.185 306,175.5 306,175.5 305,183 305,183  Z"/>

<path  fill="#FF9BCD" stroke-width="0" stroke="#FF9BCD" d = " M281 164 L283,165 C283,165 281,164 281,164  Z"/>

<path  fill="#FF9BCD" stroke-width="0" stroke="#FF9BCD" d = " M171 165 L170,166 C170,166 171,165 171,165  Z"/>

<path  fill="#FF9BCD" stroke-width="0" stroke="#FF9BCD" d = " M285 165 C286.238,165 288,165.423 288,167 288,167 285,165 285,165  Z"/>

<path  fill="#FF9BCD" stroke-width="0" stroke="#FF9BCD" d = " M169 166 L168,167 C168,167 169,166 169,166  Z"/>

<path  fill="#F0F080" stroke-width="0" stroke="#F0F080" d = " M154 171 L148,175 C148,171.672 152,169.521 152,168 152,168 155,167 155,167 155,167 154,171 154,171  Z"/>

<path  fill="#FF9BCD" stroke-width="0" stroke="#FF9BCD" d = " M290 167 L291,168 C291,168 290,167 290,167  Z"/>

<path  fill="#FF9BCD" stroke-width="0" stroke="#FF9BCD" d = " M165 168 L164,169 C164,169 165,168 165,168  Z"/>

<path  fill="#C9C9C8" stroke-width="0" stroke="#C9C9C8" d = " M147 190 C145.109,190 143,198.015 143,200 138.701,200 138.957,213 134.5,213 133.101,213 133,208.128 133,207 133,207 133,187 133,187 133,187 133,183 133,183 133,180.03 138.858,167.679 143.5,170 144.973,170.737 147.627,175 148,175 148,175 149,185 149,185 149,185 149,186 149,186 149,186 148,187 148,187 148,187 148,188 148,188 148,188 147,189 147,189 147,189 147,190 147,190  Z"/>

<path  fill="#FF9BCD" stroke-width="0" stroke="#FF9BCD" d = " M182 171 L185,171 C185,169.527 183.048,170 182,170 182,170 182,171 182,171  Z"/>

<path  fill="#FF9BCD" stroke-width="0" stroke="#FF9BCD" d = " M272 171 L275,171 C275,171 274,170 274,170 274,170 272,171 272,171  Z"/>

<path  fill="#C9C9C8" stroke-width="0" stroke="#C9C9C8" d = " M309 189 C310.729,189 316.891,212 323,212 323,212 323,187 323,187 323,187 323,183 323,183 323,179.902 317.684,167.408 312.5,170 312.5,170 308,176 308,176 308,176 308,186 308,186 308,186 308,187 308,187 308,187 309,188 309,188 309,188 309,189 309,189  Z"/>

<path  fill="#FF9BCD" stroke-width="0" stroke="#FF9BCD" d = " M151 183 L149,185 C149,185 148,175 148,175 148,175 154,171 154,171 154,171 157,171 157,171 157,171 151,174.5 151,174.5 149.678,177.143 151,179.653 151,183  Z"/>

<path  fill-rule="evenodd" fill="#FFB0D7" stroke-width="0" stroke="#FFB0D7" d = " M180 189 L179,190.5 C179,196.894 186.519,189 180,189  M174 211 L184,211 C190.884,211 195.115,206 200,206 200,206 203,204 203,204 203,204 207,201 207,201 207,201 213,190.5 213,190.5 214.753,186.993 208,183.738 208,181 208,181 207,181 207,181 207,181 205,179 205,179 205,179 197,174 197,174 197,174 195,174 195,174 195,174 194,173 194,173 194,173 191,173 191,173 191,173 190,172 190,172 190,172 189,172 189,172 189,172 188,171 188,171 188,171 185,171 185,171 185,171 182,171 182,171 179.388,171 173,178.542 173,181 173,181 172,182 172,182 172,182 171,184 171,184 171,194.638 162,200.761 162,209 162,212.274 171.698,211 174,211  Z"/>

<path  fill="#FF9BCD" stroke-width="0" stroke="#FF9BCD" d = " M189 171 L189,172 C189,172 188,171 188,171 188,171 189,171 189,171  Z"/>

<path  fill="#F0F080" stroke-width="0" stroke="#F0F080" d = " M195 174 L197,174 C197,174 194,171 194,171 194,171 189,171 189,171 189,171 189,172 189,172 189,172 190,172 190,172 190,172 191,173 191,173 191,173 194,173 194,173 194,173 195,174 195,174  Z"/>

<path  fill="#F0F080" stroke-width="0" stroke="#F0F080" d = " M262 173 L265,173 C265,173 266,172 266,172 266,172 267,172 267,172 267,172 267,171 267,171 267,171 263,171 263,171 263,171 261,173 261,173 261,173 262,173 262,173  Z"/>

<path  fill="#FF9BCD" stroke-width="0" stroke="#FF9BCD" d = " M269 171 L267,172 C267,172 267,171 267,171 267,171 269,171 269,171  Z"/>

<path  fill-rule="evenodd" fill="#FFB0D7" stroke-width="0" stroke="#FFB0D7" d = " M276 189 C276,190.019 272.505,192.002 274.5,193 276.504,194.002 278.356,189 276,189  M272 211 L283,211 C286.962,211 291.688,210 295,210 295,200.659 285,194.419 285,184 285,184 283,181 283,181 283,176.852 275,173.384 275,171 275,171 272,171 272,171 272,171 269,171 269,171 269,171 267,172 267,172 267,172 266,172 266,172 266,172 265,173 265,173 265,173 262,173 262,173 262,173 261,174 261,174 261,174 260,174 260,174 260,174 259,175 259,175 255.206,175 252.428,181 249,181 249,181 248,182 248,182 248,182 247,183 247,183 247,185.594 242.171,187.842 244,191.5 244,191.5 249,201 249,201 249,201 253,204 253,204 253,204 256,205 256,205 259.825,205 265.153,211 272,211  Z"/>

<path  fill="#FF9BCD" stroke-width="0" stroke="#FF9BCD" d = " M305 183 L308,186 C308,186 308,176 308,176 308,176 308,175 308,175 308,175 302,171 302,171 302,171 299,171 299,171 299,172.829 304.842,173.185 306,175.5 306,175.5 305,183 305,183  Z"/>

<path  fill="#FF9BCD" stroke-width="0" stroke="#FF9BCD" d = " M190 172 L191,173 C191,173 190,172 190,172  Z"/>

<path  fill="#FF9BCD" stroke-width="0" stroke="#FF9BCD" d = " M266 172 L265,173 C265,173 266,172 266,172  Z"/>

<path  fill="#FF9BCD" stroke-width="0" stroke="#FF9BCD" d = " M194 173 L195,174 C195,174 194,173 194,173  Z"/>

<path  fill="#F0F080" stroke-width="0" stroke="#F0F080" d = " M260 174 L261,174 C261,174 261,173 261,173 261,173 260,174 260,174  Z"/>

<path  fill="#FF9BCD" stroke-width="0" stroke="#FF9BCD" d = " M262 173 L261,174 C261,174 261,173 261,173 261,173 262,173 262,173  Z"/>

<path  fill="#FF9BCD" stroke-width="0" stroke="#FF9BCD" d = " M260 174 L259,175 C259,175 260,174 260,174  Z"/>

<path  fill="#FF9B88" stroke-width="0" stroke="#FF9B88" d = " M205 179 L207,181 C207,181 205,179 205,179  Z"/>

<path  fill="#FF9BCD" stroke-width="0" stroke="#FF9BCD" d = " M173 181 L172,182 C172,182 173,181 173,181  Z"/>

<path  fill-rule="evenodd" fill="#FF9B88" stroke-width="0" stroke="#FF9B88" d = " M215 197 C215,205.266 226.858,197 215,197  M217 207 L218,207 C218,204.651 226,207.527 226,203 226,196.324 215.127,181 208,181 208,183.738 214.753,186.993 213,190.5 213,190.5 207,201 207,201 207,207.313 217,205.262 217,207  Z"/>

<path  fill="#FF9B88" stroke-width="0" stroke="#FF9B88" d = " M249 181 L248,182 C248,182 249,181 249,181  Z"/>

<path  fill="#FF9BCD" stroke-width="0" stroke="#FF9BCD" d = " M285 184 L287,184 C287,184 283,181 283,181 283,181 285,184 285,184  Z"/>

<path  fill="#FF9BCD" stroke-width="0" stroke="#FF9BCD" d = " M169 184 L171,184 C171,184 172,182 172,182 172,182 169,184 169,184  Z"/>

<path  fill="#FF9B88" stroke-width="0" stroke="#FF9B88" d = " M248 182 L247,183 C247,183 248,182 248,182  Z"/>

<path  fill="#F0F080" stroke-width="0" stroke="#F0F080" d = " M133 187 L131,188 C131,188 131,187 131,187 131,187 133,183 133,183 133,183 133,187 133,187  Z"/>

<path  fill="#FEB3D7" stroke-width="0" stroke="#FEB3D7" d = " M162 209 C160.488,209 156,214.189 156,210 156,202.957 156.857,197 147,197 144.678,197 147,191.296 147,190 147,190 147,189 147,189 147,189 148,188 148,188 148,188 148,187 148,187 148,187 149,186 149,186 149,186 149,185 149,185 149,185 151,183 151,183 151,183 154.5,187 154.5,187 158.92,189.21 164.43,185 168,185 168,185 169,184 169,184 169,184 171,184 171,184 171,194.638 162,200.761 162,209  Z"/>

<path  fill-rule="evenodd" fill="#FF9B88" stroke-width="0" stroke="#FF9B88" d = " M237 197 L235,200.5 C236.167,202.834 246.101,197 237,197  M249 201 C249,207.34 240.415,206 235.5,206 234.29,206 230,205.186 230,204 230,196.024 237.88,183 247,183 247,185.594 242.171,187.842 244,191.5 244,191.5 249,201 249,201  Z"/>

<path  fill="#FEB3D7" stroke-width="0" stroke="#FEB3D7" d = " M300 209 C300,212.985 296.777,210 295,210 295,200.659 285,194.419 285,184 285,184 287,184 287,184 288.266,184 305,192.158 305,183 305,183 308,186 308,186 308,186 308,187 308,187 308,187 309,188 309,188 309,188 309,189 309,189 309,189 310,197 310,197 306.496,197 301.823,197.855 300,201.5 299.54,202.42 297.612,209 300,209  Z"/>

<path  fill="#F0F080" stroke-width="0" stroke="#F0F080" d = " M325 187 L325,188 C325,188 323,187 323,187 323,187 323,183 323,183 323,183 325,187 325,187  Z"/>

<path  fill="#FF9BCD" stroke-width="0" stroke="#FF9BCD" d = " M169 184 L168,185 C168,185 169,184 169,184  Z"/>

<path  fill="#FF9BCD" stroke-width="0" stroke="#FF9BCD" d = " M149 186 L148,187 C148,187 149,186 149,186  Z"/>

<path  fill="#F0F080" stroke-width="0" stroke="#F0F080" d = " M128 187 L127,188 C127,188 128,187 128,187  Z"/>

<path  fill="#FEA5D1" stroke-width="0" stroke="#FEA5D1" d = " M132 209 C123.654,209 123.189,227 115,227 115,227 115,207.5 115,207.5 116.616,204.268 119,200.856 119,197 120.577,197 121,195.238 121,194 121,194 121,193 121,193 121,193 127,188 127,188 127,188 128,187 128,187 128,187 131,187 131,187 131,187 131,188 131,188 131,194.228 132,202.097 132,209  Z"/>

<path  fill="#FF9BCD" stroke-width="0" stroke="#FF9BCD" d = " M151 268 L147.5,265 C132.269,257.385 139.158,235.183 145,223.5 145.925,221.649 150.013,214.526 149,212.5 147.723,209.945 141.74,214.019 141,215.5 137.598,222.303 136.341,229.818 133,236.5 129.107,244.286 131.492,258.484 135,265.5 L142,273 C137.593,273 121,256.209 121,252 123.607,252 125.3,258.6 128.5,257 131.413,255.544 128.793,248.914 130,246.5 133.951,238.598 132,218.004 132,209 132,202.097 131,194.228 131,188 131,188 133,187 133,187 133,187 133,207 133,207 133,208.128 133.101,213 134.5,213 138.957,213 138.701,200 143,200 143,208.427 147.71,210 156,210 156,214.189 160.488,209 162,209 162,212.274 171.698,211 174,211 174,212.183 170.43,212.535 169.5,213 167.89,213.805 168,217.305 168,219 167.484,219 163.37,209.065 153.5,214 146.885,217.307 147.56,225.379 145,230.5 141.526,237.448 134.579,257.539 145.5,263 147.864,264.182 151.196,262 153,262 153,262 154,263 154,263 154,264.054 151,265.931 151,268  Z"/>

<path  fill="#FF9BCD" stroke-width="0" stroke="#FF9BCD" d = " M308 187 L309,188 C309,188 308,187 308,187  Z"/>

<path  fill="#FF9BCD" stroke-width="0" stroke="#FF9BCD" d = " M325 210 L323,212 C323,212 323,187 323,187 323,187 325,188 325,188 325,188 325,210 325,210  Z"/>

<path  fill="#FEA5D1" stroke-width="0" stroke="#FEA5D1" d = " M325 210 C332.981,210 333.371,227 341,227 341,220.922 343.953,212.406 341,206.5 341,206.5 335,194 335,194 335,194 334,192 334,192 334,192 333,191 333,191 333,191 331,189 331,189 331,189 330,188 330,188 330,188 325,187 325,187 325,187 325,188 325,188 325,188 325,210 325,210  Z"/>

<path  fill="#FEF991" stroke-width="0" stroke="#FEF991" d = " M104 233 C104,237.088 98.8027,241 95,241 95,238.823 79.6866,227.127 83,220.5 83.7696,218.961 106.479,200.01 108.5,199 110.625,197.937 119,190.69 119,188 121.461,188 121,191.378 121,193 121,193 120,194 120,194 120,194 119,197 119,197 119,197 114,205 114,205 114,205 113,207 113,207 113,207 112,209 112,209 112,209 111,210 111,210 111,210 110,211 110,211 110,211 109,213 109,213 109,213 108,214 108,214 108,214 107,215 107,215 107,215 105,219 105,219 105,219 105,231 105,231 105,231 104,233 104,233  Z"/>

<path  fill="#FF9BCD" stroke-width="0" stroke="#FF9BCD" d = " M148 188 L147,189 C147,189 148,188 148,188  Z"/>

<path  fill="#F0F080" stroke-width="0" stroke="#F0F080" d = " M330 188 L331,189 C331,189 330,188 330,188  Z"/>

<path  fill="#FEF991" stroke-width="0" stroke="#FEF991" d = " M352 233 C353.234,233 354.573,241 362,241 362,236.372 377.255,228.01 373,219.5 367.996,209.492 348.729,205.958 343,194.5 343,194.5 337,188 337,188 332.486,188 337,193.699 337,195 337,195 343,207 343,207 343,207 345,209 345,209 345,209 345,210 345,210 345,210 347,212 347,212 347,212 347,213 347,213 350.078,213 352,218.723 352,221 352,221 352,231 352,231 352,231 352,233 352,233  Z"/>

<path  fill="#CCCBC8" stroke-width="0" stroke="#CCCBC8" d = " M180 189 L179,190.5 C179,196.894 186.519,189 180,189  Z"/>

<path  fill="#CCCBC8" stroke-width="0" stroke="#CCCBC8" d = " M276 189 C276,190.019 272.505,192.002 274.5,193 276.504,194.002 278.356,189 276,189  Z"/>

<path  fill="#FF9BCD" stroke-width="0" stroke="#FF9BCD" d = " M315 259 C318.392,259 318,249.635 318,247 318,239.296 312.299,223.097 309,216.5 L307,213.5 C307,209.055 314.288,214.788 315,215.5 319.712,220.212 319.303,226.106 322,231.5 325.31,238.12 326.458,255.584 323,262.5 L317,271 C321.563,271 333,259.605 333,255 333,255 328.5,257 328.5,257 326.159,255.829 326,246.906 326,244.5 326,233.559 323,223.392 323,212 316.891,212 310.729,189 309,189 309,189 310,197 310,197 310,197 313,199.5 313,199.5 317.797,209.094 304.34,209 300,209 300,212.985 296.777,210 295,210 291.688,210 286.962,211 283,211 283,212.886 289,213.556 289,217 290.022,217 295.052,210.276 300.5,213 311.282,218.391 310.883,232.266 316,242.5 318.148,246.796 315,254.96 315,259  Z"/>

<path  fill="#FF9BCD" stroke-width="0" stroke="#FF9BCD" d = " M147 197 L143,200 C143,198.015 145.109,190 147,190 147,191.296 144.678,197 147,197  Z"/>

<path  fill="#F0F080" stroke-width="0" stroke="#F0F080" d = " M333 191 L334,192 C334,192 333,191 333,191  Z"/>

<path  fill="#CBC9CC" stroke-width="0" stroke="#CBC9CC" d = " M120 194 L121,194 C121,194 121,193 121,193 121,193 120,194 120,194  Z"/>

<path  fill="#A9AAA7" stroke-width="0" stroke="#A9AAA7" d = " M121 194 C121,195.238 120.577,197 119,197 119,197 120,194 120,194 120,194 121,194 121,194  Z"/>

<path  fill="#A9AAA7" stroke-width="0" stroke="#A9AAA7" d = " M352 231 L351,232 C351,232 344,231 344,231 344,231 343,230 343,230 343,228.762 342.577,227 341,227 341,220.922 343.953,212.406 341,206.5 341,206.5 335,194 335,194 335,194 337,195 337,195 337,195 343,207 343,207 343,207 345,209 345,209 345,209 345,210 345,210 345,210 347,212 347,212 347,212 347,213 347,213 347,213 343.5,211 343.5,211 341.945,211.777 342.704,240.091 350,225.5 350.859,223.782 351,223.113 351,221 351,221 352,221 352,221 352,221 352,231 352,231  Z"/>

<path  fill="#A9AAA7" stroke-width="0" stroke="#A9AAA7" d = " M105 231 L105,232 C108.015,232 111.004,230 113,230 113,230 115,227 115,227 115,227 115,207.5 115,207.5 116.616,204.268 119,200.856 119,197 119,197 114,205 114,205 114,205 113,207 113,207 113,207 112,209 112,209 112,209 111,210 111,210 111,210 111,211 111,211 122.332,211 106,241.749 106,224 106,224 106,219 106,219 106,219 105,219 105,219 105,219 105,231 105,231  Z"/>

<path  fill="#C9CACB" stroke-width="0" stroke="#C9CACB" d = " M143 200 C143,208.427 147.71,210 156,210 156,202.957 156.857,197 147,197 147,197 143,200 143,200  Z"/>

<path  fill="#FFB986" stroke-width="0" stroke="#FFB986" d = " M215 197 C215,205.266 226.858,197 215,197  Z"/>

<path  fill="#FFB986" stroke-width="0" stroke="#FFB986" d = " M237 197 L235,200.5 C236.167,202.834 246.101,197 237,197  Z"/>

<path  fill="#C9CACB" stroke-width="0" stroke="#C9CACB" d = " M310 197 C306.496,197 301.823,197.855 300,201.5 299.54,202.42 297.612,209 300,209 304.34,209 317.797,209.094 313,199.5 313,199.5 310,197 310,197  Z"/>

<path  fill="#FF9BCD" stroke-width="0" stroke="#FF9BCD" d = " M217 207 L211,209 C211,206.565 207.052,204 203,204 203,204 207,201 207,201 207,207.313 217,205.262 217,207  Z"/>

<path  fill="#FF9BCD" stroke-width="0" stroke="#FF9BCD" d = " M227 221 L229,221 C229,221 230,207.5 230,207.5 230.983,205.535 234,207.265 234,209 236.203,209 238.569,205.535 241.5,207 241.5,207 245,209 245,209 245,206.191 250.515,204 253,204 253,204 249,201 249,201 249,207.34 240.415,206 235.5,206 234.29,206 230,205.186 230,204 230,204 226,203 226,203 226,207.527 218,204.651 218,207 225.184,207 223,215.428 223,219 223,219 225,219 225,219 225,214.913 222,208.752 222,208.5 222,205.971 226.286,207.072 227,208.5 227,208.5 227,221 227,221  Z"/>

<path  fill="#C9CCC7" stroke-width="0" stroke="#C9CCC7" d = " M210 209 L211,209 C211,206.565 207.052,204 203,204 203,204 200,206 200,206 200,206 200,207 200,207 200,208.923 202.104,211 204,211 206.483,211 208.026,209 210,209  Z"/>

<path  fill="#C9CCC7" stroke-width="0" stroke="#C9CCC7" d = " M246 209 L252,211 C252,211 257,208 257,208 257,208 256,205 256,205 256,205 253,204 253,204 250.515,204 245,206.191 245,209 245,209 246,209 246,209  Z"/>

<path  fill="#CBC9CC" stroke-width="0" stroke="#CBC9CC" d = " M114 205 L113,207 C113,207 114,205 114,205  Z"/>

<path  fill="#FF9BCD" stroke-width="0" stroke="#FF9BCD" d = " M269 214 L262,217 C255.99,217 257.496,208 257,208 257,208 256,205 256,205 259.825,205 265.153,211 272,211 272,211 269,214 269,214  Z"/>

<path  fill="#FF9BCD" stroke-width="0" stroke="#FF9BCD" d = " M188 215 L195,217 C203.361,217 196.499,207 200,207 200,207 200,206 200,206 195.115,206 190.884,211 184,211 184,211 188,215 188,215  Z"/>

<path  fill="#CBC9CC" stroke-width="0" stroke="#CBC9CC" d = " M113 207 L112,209 C112,209 113,207 113,207  Z"/>

<path  fill="#CCCCC7" stroke-width="0" stroke="#CCCCC7" d = " M207 219 L201,221 C198.089,221 195,220.048 195,217 203.361,217 196.499,207 200,207 200,208.923 202.104,211 204,211 204,219.586 207,210.728 207,219  Z"/>

<path  fill="#FCB3D8" stroke-width="0" stroke="#FCB3D8" d = " M209 219 L223,219 C223,215.428 225.184,207 218,207 218,207 217,207 217,207 217,207 211,209 211,209 211,209 210,209 210,209 210,211.978 209,215.49 209,219  Z"/>

<path  fill="#CBCBCC" stroke-width="0" stroke="#CBCBCC" d = " M225 219 C225.678,219 227,223.523 227,221 227,221 227,208.5 227,208.5 226.286,207.072 222,205.971 222,208.5 222,208.752 225,214.913 225,219  Z"/>

<path  fill="#CBCBCC" stroke-width="0" stroke="#CBCBCC" d = " M231 219 C231,220.747 230.747,221 229,221 229,221 230,207.5 230,207.5 230.983,205.535 234,207.265 234,209 234,209 233,210 233,210 231.527,210 232,211.952 232,213 232,213 232,214 232,214 230.357,214 231,217.765 231,219  Z"/>

<path  fill="#FCB3D8" stroke-width="0" stroke="#FCB3D8" d = " M233 219 L247,219 C247,219 248,212.5 248,212.5 248,212.5 246,209 246,209 246,209 245,209 245,209 245,209 241.5,207 241.5,207 238.569,205.535 236.203,209 234,209 234,209 233,210 233,210 233,211.048 233.473,213 232,213 232,213 232,214 232,214 232,214 233,219 233,219  Z"/>

<path  fill="#CBC9CC" stroke-width="0" stroke="#CBC9CC" d = " M343 207 L345,209 C345,209 343,207 343,207  Z"/>

<path  fill="#CCCCC7" stroke-width="0" stroke="#CCCCC7" d = " M255 221 L256,221 C257.984,221 262,219.556 262,217 255.99,217 257.496,208 257,208 257,208 252,211 252,211 252,219.396 249,211.071 249,219 249,219 255,221 255,221  Z"/>

<path  fill="#CBC9CC" stroke-width="0" stroke="#CBC9CC" d = " M112 209 L111,210 C111,210 112,209 112,209  Z"/>

<path  fill="#FEA4D2" stroke-width="0" stroke="#FEA4D2" d = " M113 230 C113,237.92 121,244 121,252 123.607,252 125.3,258.6 128.5,257 131.413,255.544 128.793,248.914 130,246.5 133.951,238.598 132,218.004 132,209 123.654,209 123.189,227 115,227 115,227 113,230 113,230  Z"/>

<path  fill="#FF9BCD" stroke-width="0" stroke="#FF9BCD" d = " M207 219 L209,219 C209,215.49 210,211.978 210,209 208.026,209 206.483,211 204,211 204,219.586 207,210.728 207,219  Z"/>

<path  fill="#FF9BCD" stroke-width="0" stroke="#FF9BCD" d = " M234 209 L233,210 C233,210 234,209 234,209  Z"/>

<path  fill="#FF9BCD" stroke-width="0" stroke="#FF9BCD" d = " M247 219 L249,219 C249,211.071 252,219.396 252,211 252,211 246,209 246,209 246,209 248,212.5 248,212.5 248,212.5 247,219 247,219  Z"/>

<path  fill="#CBC9CC" stroke-width="0" stroke="#CBC9CC" d = " M110 211 L111,211 C111,211 111,210 111,210 111,210 110,211 110,211  Z"/>

<path  fill="#FF9BCD" stroke-width="0" stroke="#FF9BCD" d = " M233 210 C231.527,210 232,211.952 232,213 233.473,213 233,211.048 233,210  Z"/>

<path  fill="#FEA4D2" stroke-width="0" stroke="#FEA4D2" d = " M334 253 L333,255 C333,255 328.5,257 328.5,257 326.159,255.829 326,246.906 326,244.5 326,233.559 323,223.392 323,212 323,212 325,210 325,210 332.981,210 333.371,227 341,227 342.577,227 343,228.762 343,230 343,230 343,232 343,232 343,238.211 336,242.986 336,249 336,249 335,250 335,250 335,251.048 335.473,253 334,253  Z"/>

<path  fill="#CBC9CC" stroke-width="0" stroke="#CBC9CC" d = " M345 210 L347,212 C347,212 345,210 345,210  Z"/>

<path  fill="#CBC9CC" stroke-width="0" stroke="#CBC9CC" d = " M110 212 L109,213 C109,213 110,211 110,211 110,211 110,212 110,212  Z"/>

<path  fill="#A9AAA7" stroke-width="0" stroke="#A9AAA7" d = " M111 211 L110,212 C110,212 110,211 110,211 110,211 111,211 111,211  Z"/>

<path  fill="#A9AAA8" stroke-width="0" stroke="#A9AAA8" d = " M107 218 L106,219 C106,219 106,224 106,224 106,241.749 122.332,211 111,211 111,211 110,212 110,212 110,212 109,213 109,213 109,213 109,214 109,214 109,214 108,215 108,215 108,215 107,217 107,217 107,217 107,218 107,218  Z"/>

<path  fill="#FCB3D9" stroke-width="0" stroke="#FCB3D9" d = " M155 263 L156,263 C157.843,263 160.584,257 164,257 164,257 171,249.5 171,249.5 175.267,245.233 177.458,239.584 180,234.5 180,234.5 186,220.5 186,220.5 186.557,219.386 186.41,215 188,215 188,215 184,211 184,211 184,211 174,211 174,211 174,212.183 170.43,212.535 169.5,213 167.89,213.805 168,217.305 168,219 168,230.962 160.428,230.644 157,237.5 156.049,239.403 153,259.65 153,262 153,262 154,263 154,263 154,263 155,263 155,263  Z"/>

<path  fill="#FCB3D9" stroke-width="0" stroke="#FCB3D9" d = " M301 263 L303,263 C303,263 303,261 303,261 303,257.547 300.469,240.438 299,237.5 293.855,227.21 289,231.858 289,217 289,213.556 283,212.886 283,211 283,211 272,211 272,211 272,211 269,214 269,214 269,224.791 278.349,238.198 283,247.5 283,247.5 292,257 292,257 295.958,257 297.938,263 300,263 300,263 301,263 301,263  Z"/>

<path  fill="#A9AAA8" stroke-width="0" stroke="#A9AAA8" d = " M351 220 L351,221 C351,223.113 350.859,223.782 350,225.5 342.704,240.091 341.945,211.777 343.5,211 343.5,211 347,213 347,213 347,213 347,214 347,214 347,214 349,216 349,216 349,216 349,217 349,217 349,218.238 349.423,220 351,220  Z"/>

<path  fill="#C8CACA" stroke-width="0" stroke="#C8CACA" d = " M143 273 C145.858,273 148.278,274 151,274 151,274 151,268 151,268 151,268 147.5,265 147.5,265 132.269,257.385 139.158,235.183 145,223.5 145.925,221.649 150.013,214.526 149,212.5 147.723,209.945 141.74,214.019 141,215.5 137.598,222.303 136.341,229.818 133,236.5 129.107,244.286 131.492,258.484 135,265.5 135,265.5 142,273 142,273 142,273 143,273 143,273  Z"/>

<path  fill="#C8CACA" stroke-width="0" stroke="#C8CACA" d = " M306 272 C306,277.299 311.126,273 314,273 314,271.423 315.762,271 317,271 317,271 323,262.5 323,262.5 326.458,255.584 325.31,238.12 322,231.5 319.303,226.106 319.712,220.212 315,215.5 314.288,214.788 307,209.055 307,213.5 307,213.5 309,216.5 309,216.5 312.299,223.097 318,239.296 318,247 318,249.635 318.392,259 315,259 315,259 314,260 314,260 314,261.925 305.092,269 305,269 305,269 306,272 306,272  Z"/>

<path  fill="#CBC9CC" stroke-width="0" stroke="#CBC9CC" d = " M108 214 L109,214 C109,214 109,213 109,213 109,213 108,214 108,214  Z"/>

<path  fill="#FFA4D0" stroke-width="0" stroke="#FFA4D0" d = " M168 219 C167.484,219 163.37,209.065 153.5,214 146.885,217.307 147.56,225.379 145,230.5 141.526,237.448 134.579,257.539 145.5,263 147.864,264.182 151.196,262 153,262 153,259.65 156.049,239.403 157,237.5 160.428,230.644 168,230.962 168,219  Z"/>

<path  fill="#FFA4D0" stroke-width="0" stroke="#FFA4D0" d = " M314 260 L310.5,263 C307.383,264.558 305.099,261 303,261 303,257.547 300.469,240.438 299,237.5 293.855,227.21 289,231.858 289,217 290.022,217 295.052,210.276 300.5,213 311.282,218.391 310.883,232.266 316,242.5 318.148,246.796 315,254.96 315,259 315,259 314,260 314,260  Z"/>

<path  fill="#CBC9CC" stroke-width="0" stroke="#CBC9CC" d = " M351 221 L352,221 C352,218.723 350.078,213 347,213 347,213 347,214 347,214 347,214 349,216 349,216 349,216 349,217 349,217 349,217 351,220 351,220 351,220 351,221 351,221  Z"/>

<path  fill="#CBC9CC" stroke-width="0" stroke="#CBC9CC" d = " M107 215 L108,215 C108,215 108,214 108,214 108,214 107,215 107,215  Z"/>

<path  fill="#A9AAA7" stroke-width="0" stroke="#A9AAA7" d = " M109 214 L108,215 C108,215 108,214 108,214 108,214 109,214 109,214  Z"/>

<path  fill="#FF9BCD" stroke-width="0" stroke="#FF9BCD" d = " M231 219 L233,219 C233,219 232,214 232,214 230.357,214 231,217.765 231,219  Z"/>

<path  fill="#FFB2D8" stroke-width="0" stroke="#FFB2D8" d = " M292 257 C286.528,257 279.078,256.711 274.5,259 L265,266 C265,260.954 263.083,256.666 261,252.5 258.194,246.887 256,229.791 256,223 256,223 256,221 256,221 257.984,221 262,219.556 262,217 262,217 269,214 269,214 269,224.791 278.349,238.198 283,247.5 283,247.5 292,257 292,257  Z"/>

<path  fill="#A9AAA7" stroke-width="0" stroke="#A9AAA7" d = " M347 214 L349,216 C349,216 347,214 347,214  Z"/>

<path  fill="#CBC9CC" stroke-width="0" stroke="#CBC9CC" d = " M105 219 L106,219 C106,219 107,218 107,218 107,218 107,217 107,217 107,217 107,215 107,215 107,215 105,219 105,219  Z"/>

<path  fill="#A9AAA7" stroke-width="0" stroke="#A9AAA7" d = " M108 215 L107,217 C107,217 107,215 107,215 107,215 108,215 108,215  Z"/>

<path  fill="#FFB2D8" stroke-width="0" stroke="#FFB2D8" d = " M164 257 C169.566,257 177.82,256.66 182.5,259 L192,267 C192,252.692 201,236.854 201,221 198.089,221 195,220.048 195,217 195,217 188,215 188,215 186.41,215 186.557,219.386 186,220.5 186,220.5 180,234.5 180,234.5 177.458,239.584 175.267,245.233 171,249.5 171,249.5 164,257 164,257  Z"/>

<path  fill="#A9AAA7" stroke-width="0" stroke="#A9AAA7" d = " M349 217 L351,220 C349.423,220 349,218.238 349,217  Z"/>

<path  fill="#A9AAA7" stroke-width="0" stroke="#A9AAA7" d = " M107 218 L106,219 C106,219 107,218 107,218  Z"/>

<path  fill-rule="evenodd" fill="#FEB0D8" stroke-width="0" stroke="#FEB0D8" d = " M231 228 C231,230.338 229,232.862 229,236 L229,242 C229,243.991 231.459,253.582 234,248.5 235.764,244.972 234.592,228 231,228  M224 228 C224,230.097 223,233.293 223,236 L223,242 L223,245.5 C223,260.581 232.545,228 224,228  M253 272 L254,272 C254,265.425 261.02,271 263,271 263,271 265,266 265,266 265,260.954 263.083,256.666 261,252.5 258.194,246.887 256,229.791 256,223 256,223 255,221 255,221 255,221 249,219 249,219 249,219 247,219 247,219 247,219 233,219 233,219 233,219 231,219 231,219 231,220.747 230.747,221 229,221 229,221 227,221 227,221 227,223.523 225.678,219 225,219 225,219 223,219 223,219 223,219 209,219 209,219 209,219 207,219 207,219 207,219 201,221 201,221 201,236.854 192,252.692 192,267 192,267 194,271 194,271 195.282,271 203,265.742 203,272 203,272 207,267.5 207,267.5 207,267.5 215.5,262 215.5,262 216.566,261.467 225,259.602 225,262 225,262 226,262 226,262 226,246.871 231,250.379 231,262 237.484,262 240.361,261.93 246.5,265 246.5,265 253,272 253,272  Z"/>

<path  fill="#FF9BCD" stroke-width="0" stroke="#FF9BCD" d = " M256 221 L256,223 C256,223 255,221 255,221 255,221 256,221 256,221  Z"/>

<path  fill="#C8C8CC" stroke-width="0" stroke="#C8C8CC" d = " M224 228 C224,230.097 223,233.293 223,236 L223,242 L223,245.5 C223,260.581 232.545,228 224,228  Z"/>

<path  fill="#C8C8CC" stroke-width="0" stroke="#C8C8CC" d = " M231 228 C231,230.338 229,232.862 229,236 L229,242 C229,243.991 231.459,253.582 234,248.5 235.764,244.972 234.592,228 231,228  Z"/>

<path  fill="#FF9BCD" stroke-width="0" stroke="#FF9BCD" d = " M344 231 L343,232 C343,232 343,230 343,230 343,230 344,231 344,231  Z"/>

<path  fill="#F0F080" stroke-width="0" stroke="#F0F080" d = " M105 232 L104,233 C104,233 105,231 105,231 105,231 105,232 105,232  Z"/>

<path  fill="#F0F080" stroke-width="0" stroke="#F0F080" d = " M351 232 L352,233 C352,233 352,231 352,231 352,231 351,232 351,232  Z"/>

<path  fill="#FF9BCD" stroke-width="0" stroke="#FF9BCD" d = " M336 249 L335,250 C335,250 336,249 336,249  Z"/>

<path  fill="#FFC5E2" stroke-width="0" stroke="#FFC5E2" d = " M226 281 L230,281 C230,281 230,277 230,277 230,275.259 229.227,266 231,266 231,266 231,262 231,262 231,250.379 226,246.871 226,262 226,262 226,276 226,276 226,276 226,281 226,281  Z"/>

<path  fill="#FF9BCD" stroke-width="0" stroke="#FF9BCD" d = " M334 253 L333,255 C333,255 334,253 334,253  Z"/>

<path  fill="#FFB3D6" stroke-width="0" stroke="#FFB3D6" d = " M171 286 C178.396,286 184.077,287 191,287 191,285.357 192.338,281 194,281 194,281 194,280 194,280 194,277.422 194,273.69 194,271 194,271 192,267 192,267 192,267 182.5,259 182.5,259 177.82,256.66 169.566,257 164,257 160.584,257 157.843,263 156,263 156,263 155,264 155,264 155,264 154,269 154,269 154,269 153,271 153,271 153,279.47 167,284.508 167,285 168.048,285 170,284.527 170,286 170,286 171,286 171,286  Z"/>

<path  fill="#FFB3D6" stroke-width="0" stroke="#FFB3D6" d = " M265 286 C267.579,286 270.997,289.752 274.5,288 278.388,286.056 281.244,286 286,286 286,284.527 287.952,285 289,285 289,285 290,285 290,285 290,283.631 299.543,279 301,279 301,279 303,274.5 303,274.5 304.722,271.056 301,267.03 301,264 301,264 300,263 300,263 297.938,263 295.958,257 292,257 286.528,257 279.078,256.711 274.5,259 274.5,259 265,266 265,266 265,266 263,271 263,271 263,271 263,280 263,280 263,280 263,281 263,281 263,281 265,286 265,286  Z"/>

<path  fill="#FF9BCD" stroke-width="0" stroke="#FF9BCD" d = " M315 259 L314,260 C314,260 315,259 315,259  Z"/>

<path  fill="#FF9BCD" stroke-width="0" stroke="#FF9BCD" d = " M303 263 C303,264.714 305,266.482 305,269 305.092,269 314,261.925 314,260 314,260 310.5,263 310.5,263 307.383,264.558 305.099,261 303,261 303,261 303,263 303,263  Z"/>

<path  fill="#FDB2D9" stroke-width="0" stroke="#FDB2D9" d = " M201 279 C201,280.465 200.891,283 203,283 209.504,283 214.466,277 220,277 220,277 221,276 221,276 221,276 222,275 222,275 222,275 223,274 223,274 223,274 225,271.5 225,271.5 225,271.5 225,262 225,262 225,259.602 216.566,261.467 215.5,262 215.5,262 207,267.5 207,267.5 207,267.5 203,272 203,272 203,272 202,275 202,275 202,275 201,276 201,276 201,276 201,277 201,277 201,277 201,279 201,279  Z"/>

<path  fill="#FDB2D9" stroke-width="0" stroke="#FDB2D9" d = " M256 279 L253,283 C245.85,283 240.286,276 235,276 235,276 234,275 234,275 234,272.439 231,269.676 231,266 231,266 231,262 231,262 237.484,262 240.361,261.93 246.5,265 246.5,265 253,272 253,272 253,272 254,273 254,273 254,273 255,277 255,277 255,277 256,279 256,279  Z"/>

<path  fill="#FF9BCD" stroke-width="0" stroke="#FF9BCD" d = " M223 274 L226,276 C226,276 226,262 226,262 226,262 225,262 225,262 225,262 225,271.5 225,271.5 225,271.5 223,274 223,274  Z"/>

<path  fill="#C8C8CB" stroke-width="0" stroke="#C8C8CB" d = " M152 276 C152,281.004 163.427,285 167,285 167,284.508 153,279.47 153,271 153,271 154,269 154,269 154,269 155,264 155,264 155,264 155,263 155,263 155,263 154,263 154,263 154,264.054 151,265.931 151,268 151,268 151,274 151,274 151,274 152,276 152,276  Z"/>

<path  fill="#FF9BCD" stroke-width="0" stroke="#FF9BCD" d = " M156 263 L155,264 C155,264 155,263 155,263 155,263 156,263 156,263  Z"/>

<path  fill="#FF9BCD" stroke-width="0" stroke="#FF9BCD" d = " M301 263 L301,264 C301,264 300,263 300,263 300,263 301,263 301,263  Z"/>

<path  fill="#C8C8CB" stroke-width="0" stroke="#C8C8CB" d = " M304 276 C304,277.658 302.539,279 301,279 301,279 303,274.5 303,274.5 304.722,271.056 301,267.03 301,264 301,264 301,263 301,263 301,263 303,263 303,263 303,264.714 305,266.482 305,269 305,269 306,272 306,272 306,272 304,276 304,276  Z"/>

<path  fill="#FF9BCD" stroke-width="0" stroke="#FF9BCD" d = " M234 275 C230.486,275 231.452,277 230,277 230,275.259 229.227,266 231,266 231,269.676 234,272.439 234,275  Z"/>

<path  fill="#FF9BCD" stroke-width="0" stroke="#FF9BCD" d = " M154 269 L153,271 C153,271 154,269 154,269  Z"/>

<path  fill="#FCB2D9" stroke-width="0" stroke="#FCB2D9" d = " M194 280 L195,280 C195,280 199,279 199,279 199,279 201,277 201,277 201,277 201,276 201,276 201,276 202,275 202,275 202,275 203,272 203,272 203,265.742 195.282,271 194,271 194,273.69 194,277.422 194,280  Z"/>

<path  fill="#FCB2D9" stroke-width="0" stroke="#FCB2D9" d = " M262 280 L263,280 C263,280 263,271 263,271 261.02,271 254,265.425 254,272 254,272 254,273 254,273 254,273 255,277 255,277 256.747,277 257,277.253 257,279 257,279 262,280 262,280  Z"/>

<path  fill="#FF9BCD" stroke-width="0" stroke="#FF9BCD" d = " M317 271 C315.762,271 314,271.423 314,273 315.238,273 317,272.577 317,271  Z"/>

<path  fill="#FF9BCD" stroke-width="0" stroke="#FF9BCD" d = " M254 272 L254,273 C254,273 253,272 253,272 253,272 254,272 254,272  Z"/>

<path  fill="#FF9BCD" stroke-width="0" stroke="#FF9BCD" d = " M304 276 C305.473,276 305,277.952 305,279 305,279 314,273 314,273 311.126,273 306,277.299 306,272 306,272 304,276 304,276  Z"/>

<path  fill="#FF9BCD" stroke-width="0" stroke="#FF9BCD" d = " M152 276 C149.111,276 153,279.299 153,280 151.347,280 143,274.14 143,273 145.858,273 148.278,274 151,274 151,274 152,276 152,276  Z"/>

<path  fill="#FF9BCD" stroke-width="0" stroke="#FF9BCD" d = " M223 274 L222,275 C222,275 223,274 223,274  Z"/>

<path  fill="#CACCC8" stroke-width="0" stroke="#CACCC8" d = " M220 277 C220,283.09 222.084,281 226,281 226,281 226,276 226,276 226,276 223,274 223,274 223,274 222,275 222,275 222,275 221,276 221,276 221,276 220,277 220,277  Z"/>

<path  fill="#CACCC8" stroke-width="0" stroke="#CACCC8" d = " M230 277 L230,281 C230.186,281 239.106,283.712 237,279.5 237,279.5 235,276 235,276 235,276 234,275 234,275 230.486,275 231.452,277 230,277  Z"/>

<path  fill="#FF9BCD" stroke-width="0" stroke="#FF9BCD" d = " M202 275 L201,276 C201,276 202,275 202,275  Z"/>

<path  fill="#FF9BCD" stroke-width="0" stroke="#FF9BCD" d = " M222 275 L221,276 C221,276 222,275 222,275  Z"/>

<path  fill="#CBC7CC" stroke-width="0" stroke="#CBC7CC" d = " M172 289 L175,289 C177.946,289 171,286.056 171,286 171,286 170,286 170,286 168.952,286 167,286.473 167,285 163.427,285 152,281.004 152,276 149.111,276 153,279.299 153,280 153,280 154,281 154,281 154,281 156,283 156,283 156,283 157,283 157,283 157,283 159,285 159,285 159,285 161,285 161,285 161,285 162,286 162,286 162,286 163,286 163,286 163,286 164,287 164,287 164,287 166,287 166,287 166,287 168,288 168,288 168,288 169,288 169,288 170.048,288 172,287.527 172,289  Z"/>

<path  fill="#FF9BCD" stroke-width="0" stroke="#FF9BCD" d = " M221 276 L220,277 C220,277 221,276 221,276  Z"/>

<path  fill="#FF9BCD" stroke-width="0" stroke="#FF9BCD" d = " M281 289 C281,290.381 274.673,290.413 273.5,291 266.6,294.45 257.272,295 249,295 249,293.683 252.356,293.212 251,290.5 247.731,283.962 236.322,285 231,285 231,285 230,281 230,281 230.186,281 239.106,283.712 237,279.5 237,279.5 235,276 235,276 240.286,276 245.85,283 253,283 253,287.772 265,293.507 265,286 267.579,286 270.997,289.752 274.5,288 278.388,286.056 281.244,286 286,286 286,288.064 282.647,286.426 281.5,287 280.685,287.408 279.214,289 281,289  Z"/>

<path  fill="#CBC7CC" stroke-width="0" stroke="#CBC7CC" d = " M299 283 L300,283 C300,283 301,282 301,282 301,282 303,281 303,281 303,281 304,280 304,280 304,280 305,279 305,279 305,277.952 305.473,276 304,276 304,277.658 302.539,279 301,279 301,279 298,283 298,283 298,283 299,283 299,283  Z"/>

<path  fill="#FF9BCD" stroke-width="0" stroke="#FF9BCD" d = " M199 279 L201,279 C201,279 201,277 201,277 201,277 199,279 199,279  Z"/>

<path  fill="#FF9BCD" stroke-width="0" stroke="#FF9BCD" d = " M175 289 C175,290.647 182.176,290.338 183.5,291 190.185,294.342 198.969,295 207,295 207,293.616 203.811,293.877 205,291.5 208.612,284.277 219.289,285 225,285 225,285 226,281 226,281 222.084,281 220,283.09 220,277 214.466,277 209.504,283 203,283 203,288.018 191,293.005 191,287 184.077,287 178.396,286 171,286 171,286.056 177.946,289 175,289  Z"/>

<path  fill="#FF9BCD" stroke-width="0" stroke="#FF9BCD" d = " M256 279 L257,279 C257,277.253 256.747,277 255,277 255,277 256,279 256,279  Z"/>

<path  fill="#FCB2D8" stroke-width="0" stroke="#FCB2D8" d = " M203 283 C203,288.018 191,293.005 191,287 191,285.357 192.338,281 194,281 194,281 195,280 195,280 195,280 199,279 199,279 199,279 201,279 201,279 201,280.465 200.891,283 203,283  Z"/>

<path  fill="#FCB2D8" stroke-width="0" stroke="#FCB2D8" d = " M253 283 C253,287.772 265,293.507 265,286 265,286 263,281 263,281 263,281 262,280 262,280 262,280 257,279 257,279 257,279 256,279 256,279 256,279 253,283 253,283  Z"/>

<path  fill="#C8C8CB" stroke-width="0" stroke="#C8C8CB" d = " M298 283 L290,285 C290,283.631 299.543,279 301,279 301,279 298,283 298,283  Z"/>

<path  fill="#FF9BCD" stroke-width="0" stroke="#FF9BCD" d = " M305 279 L304,280 C304,280 305,279 305,279  Z"/>

<path  fill="#FF9BCD" stroke-width="0" stroke="#FF9BCD" d = " M195 280 L194,281 C194,281 194,280 194,280 194,280 195,280 195,280  Z"/>

<path  fill="#FF9BCD" stroke-width="0" stroke="#FF9BCD" d = " M263 280 L263,281 C263,281 262,280 262,280 262,280 263,280 263,280  Z"/>

<path  fill="#FF9BCD" stroke-width="0" stroke="#FF9BCD" d = " M304 280 L303,281 C303,281 304,280 304,280  Z"/>

<path  fill="#FF9BCD" stroke-width="0" stroke="#FF9BCD" d = " M154 281 L156,283 C156,283 154,281 154,281  Z"/>

<path  fill="#FFC6E2" stroke-width="0" stroke="#FFC6E2" d = " M226 287 C226,291.369 230.091,287 231,287 231,287 231,285 231,285 231,285 230,281 230,281 230,281 226,281 226,281 226,281 225,285 225,285 225,285 226,287 226,287  Z"/>

<path  fill="#FF9BCD" stroke-width="0" stroke="#FF9BCD" d = " M303 281 L301,282 C301,282 303,281 303,281  Z"/>

<path  fill="#FF9BCD" stroke-width="0" stroke="#FF9BCD" d = " M301 282 L300,283 C300,283 301,282 301,282  Z"/>

<path  fill="#FF9BCD" stroke-width="0" stroke="#FF9BCD" d = " M157 283 L159,285 C159,285 157,283 157,283  Z"/>

<path  fill="#CBC7CC" stroke-width="0" stroke="#CBC7CC" d = " M281 289 L285,289 C285,289 287,288 287,288 287,288 288,288 288,288 288,286.527 289.952,287 291,287 291,287 292,287 292,287 292,287 294,286 294,286 294,286 295,286 295,286 295,286 296,285 296,285 296,285 297,285 297,285 297,285 298,284 298,284 298,284 298,283 298,283 298,283 290,285 290,285 290,285 289,285 289,285 289,286.473 287.048,286 286,286 286,288.064 282.647,286.426 281.5,287 280.685,287.408 279.214,289 281,289  Z"/>

<path  fill="#FF9BCD" stroke-width="0" stroke="#FF9BCD" d = " M299 283 L298,284 C298,284 298,283 298,283 298,283 299,283 299,283  Z"/>

<path  fill="#C7C9C9" stroke-width="0" stroke="#C7C9C9" d = " M219 295 L220,295 C220,295 223,292.5 223,292.5 223,292.5 226,287 226,287 226,287 225,285 225,285 219.289,285 208.612,284.277 205,291.5 203.811,293.877 207,293.616 207,295 207,295 208,295 208,295 208,295 219,295 219,295  Z"/>

<path  fill="#C7C9C9" stroke-width="0" stroke="#C7C9C9" d = " M248 295 L249,295 C249,293.683 252.356,293.212 251,290.5 247.731,283.962 236.322,285 231,285 231,285 231,287 231,287 231,290.512 236,292.675 236,295 236,295 238,295 238,295 238,295 248,295 248,295  Z"/>

<path  fill="#FF9BCD" stroke-width="0" stroke="#FF9BCD" d = " M298 284 L297,285 C297,285 298,284 298,284  Z"/>

<path  fill="#FF9BCD" stroke-width="0" stroke="#FF9BCD" d = " M161 285 L162,286 C162,286 161,285 161,285  Z"/>

<path  fill="#FF9BCD" stroke-width="0" stroke="#FF9BCD" d = " M167 285 C168.048,285 170,284.527 170,286 168.952,286 167,286.473 167,285  Z"/>

<path  fill="#FF9BCD" stroke-width="0" stroke="#FF9BCD" d = " M289 285 C287.952,285 286,284.527 286,286 287.048,286 289,286.473 289,285  Z"/>

<path  fill="#FF9BCD" stroke-width="0" stroke="#FF9BCD" d = " M296 285 L295,286 C295,286 296,285 296,285  Z"/>

<path  fill="#FF9BCD" stroke-width="0" stroke="#FF9BCD" d = " M163 286 L164,287 C164,287 163,286 163,286  Z"/>

<path  fill="#FF9BCD" stroke-width="0" stroke="#FF9BCD" d = " M294 286 L292,287 C292,287 294,286 294,286  Z"/>

<path  fill="#FF9BCD" stroke-width="0" stroke="#FF9BCD" d = " M166 287 L168,288 C168,288 166,287 166,287  Z"/>

<path  fill="#FF9BCD" stroke-width="0" stroke="#FF9BCD" d = " M220 295 C223.787,295 228.476,290 228.5,290 229.699,290 232.726,295 236,295 236,292.675 231,290.512 231,287 230.091,287 226,291.369 226,287 226,287 223,292.5 223,292.5 223,292.5 220,295 220,295  Z"/>

<path  fill="#FF9BCD" stroke-width="0" stroke="#FF9BCD" d = " M291 287 C289.952,287 288,286.527 288,288 289.048,288 291,288.473 291,287  Z"/>

<path  fill="#FF9BCD" stroke-width="0" stroke="#FF9BCD" d = " M169 288 C170.048,288 172,287.527 172,289 170.952,289 169,289.473 169,288  Z"/>

<path  fill="#FF9BCD" stroke-width="0" stroke="#FF9BCD" d = " M287 288 L285,289 C285,289 287,288 287,288  Z"/>

<path  fill="#FF9BCD" stroke-width="0" stroke="#FF9BCD" d = " M208 295 L219,295 C219,296.634 208,296.634 208,295  Z"/>

<path  fill="#FF9BCD" stroke-width="0" stroke="#FF9BCD" d = " M238 295 L248,295 C248,296.628 238,296.628 238,295  Z"/>

</g>
</svg>
